# xmcd
#
# Track frame offsets: 
#        150
#        31133
#        59663
#        76658
#        100654
#        122263
#        144949
#        174535
#        200199
#        227449
#        244051
#        271658
#        288201
#        308372
#
# Disc length: 4344 seconds
#
# Revision: 0
# Processed by: cddbd v1.5.1PL0 Copyright (c) Steve Scherf et al.
# Submitted via: ExactAudioCopy v0.95a5
#
DISCID=a910f60e
DTITLE=Texas Redemptors - Milagros
DYEAR=2002
DGENRE=Blues
TTITLE0=How Do You Mend a Broken Heart?
TTITLE1=Double Cross Shuffle
TTITLE2=Tequila 2002
TTITLE3=Lonesome Railroad
TTITLE4=Feelin 4 U
TTITLE5=Some ol Rainy Day
TTITLE6=I Wanna C U Dance
TTITLE7=Born In Louisiana
TTITLE8=Mista Charlie
TTITLE9=Further On Up the Road
TTITLE10=So Sad
TTITLE11=Ragged But Right
TTITLE12=Old Rockin Chair
TTITLE13=Redemption
EXTD=
EXTT0=
EXTT1=
EXTT2=
EXTT3=
EXTT4=
EXTT5=
EXTT6=
EXTT7=
EXTT8=
EXTT9=
EXTT10=
EXTT11=
EXTT12=
EXTT13=
PLAYORDER=
